# xmcd
#
# Track frame offsets:
#	150
#	16962
#	32987
#	49172
#	63662
#	79035
#	94840
#	108890
#	125637
#	142432
#	156002
#	172117
#	188030
#	203757
#	219350
#	235067
#
# Disc length: 3340 seconds
#
# Revision: 1
# Processed by: cddbd v1.5.2PL0 Copyright (c) Steve Scherf et al.
# Submitted via: audiograbber 1.83.01
#
DISCID=e40d0a10
DTITLE=Chart Hits - Volume 9
DYEAR=2000
DGENRE=Dance
TTITLE0=Loona - Latino Lover
TTITLE1=Antique - Opa Opa
TTITLE2=Floorfilla - Anthem# 3
TTITLE3=Alice Deejay - Will I Ever
TTITLE4=Passion Fruit - Sun Fun Baby
TTITLE5=Britney Spears - Oops...! I Did It Again
TTITLE6=Vengaboys - Uncle John Fom Jamaica
TTITLE7=Schiller - Ein Schöner Tag
TTITLE8=Andru Donalds - Precious Little Diamond
TTITLE9=Olsen Brothers - Fly On The Wings Of Love
TTITLE10=Nils - Du Und Ich
TTITLE11=Girl Thing - Last One Standing
TTITLE12=Love Connection - The Bomb
TTITLE13=Zlatco und Jürgen - Grosser Bruder
TTITLE14=Lovestern Galaktika meets La Petit Sam - Loca Galaktika
TTITLE15=Say Colour - It`s Summer In My Heart
EXTD=
EXTT0=
EXTT1=
EXTT2=
EXTT3=
EXTT4=
EXTT5=
EXTT6=
EXTT7=
EXTT8=
EXTT9=
EXTT10=
EXTT11=
EXTT12=
EXTT13=
EXTT14=
EXTT15=
PLAYORDER=
